#N canvas 571 303 566 326 12;
#X obj 115 114 ui.slider @size 120 14 @receive "(null)" @send "(null)" @pinned 0 @presetname "ui.slider.0" @mouse_events 0 @background_color 0.93 0.93 0.93 1 @border_color 0.6 0.6 0.6 1 @label_color 0 0 0 1 @knob_color 0 0.75 1 1 @text_color 0 0 0 1 @fontname "Helvetica" @fontweight "normal" @fontslant "roman" @fontsize 11 @label "(null)" @label_inner 0 @label_side "top" @label_align "left" @label_valign "top" @label_margins 0 0 @min 0 @max 1000 @mode 0 @scale "linear" @active_scale 0 @midi_channel 0 @midi_control -1 @midi_pickup 1 @show_value 0 @value_pos "center" @value_precision 2;
#X msg 25 120 @delay \$1;
#X obj 101 70 fx.secho~ 500 0.8;
#X obj 116 138 ui.gain~ @size 120 18 @receive "(null)" @send "(null)" @pinned 0 @presetname "ui.gain~.1" @mouse_events 0 @background_color 0.93 0.93 0.93 1 @border_color 0.6 0.6 0.6 1 @label_color 0 0 0 1 @knob_color 0 0.75 1 1 @fontname "Helvetica" @fontweight "normal" @fontslant "roman" @fontsize 11 @label "(null)" @label_inner 0 @label_side "top" @label_align "left" @label_valign "top" @label_margins 0 0 @max 0 @min -60 @output_value 0 @relative 1 @midi_channel 0 @midi_control -1 @midi_pickup 1 @show_range 1;
#X obj 71 32 inlet~;
#X obj 103 175 outlet~;
#X connect 0 0 1 0;
#X connect 1 0 2 0;
#X connect 2 0 3 0;
#X connect 3 0 5 0;
#X connect 4 0 2 0;
#X coords 0 -1 1 1 150 60 1 100 100;
