#N canvas 491 201 566 441 12;
#X msg 114 211 @delay \$1;
#X obj 70 258 fx.secho~ 500 0.8;
#X obj 70 23 inlet~;
#X obj 68 359 outlet~;
#X obj 115 148 ui.knob @size 40 40 @receive "(null)" @send "(null)" @pinned 0 @presetname "ui.knob.0" @mouse_events 0 @background_color 0.93 0.93 0.93 1 @border_color 0.6 0.6 0.6 1 @label_color 0 0 0 1 @scale_color 0.6 0.6 0.6 1 @knob_color 0 0.75 1 1 @fontname "Helvetica" @fontweight "normal" @fontslant "roman" @fontsize 11 @label "(null)" @label_inner 0 @label_side "top" @label_align "left" @label_valign "top" @label_margins 0 0 @min 0 @max 1000 @scale "linear" @midi_channel 0 @midi_control -1 @midi_pickup 1 @show_range 0 @show_value 0 @active_scale 0;
#X obj 68 318 *~;
#X obj 281 146 ui.knob @size 40 40 @receive "(null)" @send "(null)" @pinned 0 @presetname "ui.knob.1" @mouse_events 0 @background_color 0.93 0.93 0.93 1 @border_color 0.6 0.6 0.6 1 @label_color 0 0 0 1 @scale_color 0.6 0.6 0.6 1 @knob_color 0 0.75 1 1 @fontname "Helvetica" @fontweight "normal" @fontslant "roman" @fontsize 11 @label "(null)" @label_inner 0 @label_side "top" @label_align "left" @label_valign "top" @label_margins 0 0 @min 0 @max 1 @scale "linear" @midi_channel 0 @midi_control -1 @midi_pickup 1 @show_range 0 @show_value 0 @active_scale 0;
#X text 272 120 dry/wet;
#X text 118 123 delay;
#X obj 195 145 ui.knob @size 40 40 @receive "(null)" @send "(null)" @pinned 0 @presetname "ui.knob.7" @mouse_events 0 @background_color 0.93 0.93 0.93 1 @border_color 0.6 0.6 0.6 1 @label_color 0 0 0 1 @scale_color 0.6 0.6 0.6 1 @knob_color 0 0.75 1 1 @fontname "Helvetica" @fontweight "normal" @fontslant "roman" @fontsize 11 @label "(null)" @label_inner 0 @label_side "top" @label_align "left" @label_valign "top" @label_margins 0 0 @min 0 @max 0.99 @scale "linear" @midi_channel 0 @midi_control -1 @midi_pickup 1 @show_range 0 @show_value 0 @active_scale 0;
#X msg 195 210 @feedback \$1;
#X text 193 120 feedback;
#X connect 0 0 1 0;
#X connect 1 0 5 0;
#X connect 2 0 1 0;
#X connect 4 0 0 0;
#X connect 5 0 3 0;
#X connect 6 0 5 1;
#X connect 9 0 10 0;
#X connect 10 0 1 0;
#X coords 0 -1 1 1 250 100 1 100 100;
