#N canvas 94 169 1205 700 12;
#X obj 398 27 until;
#X text 890 -65 [< HITS];
#X text 890 -84 |;
#X obj 398 108 mod, f 7;
#X obj 662 113 expr int($f1*$f2);
#X obj 665 90 hsl 128 15 0 1 0 0 empty \$0-hitsGUI HITS_(0-1) -2 -8 0 10 #e0c4fc #000000 #000000 0 1;
#X obj 398 301 <;
#X msg 398 329 add2 \$1;
#X msg 398 373;
#X msg 474 337 set;
#X floatatom 662 136 5 0 0 0 - - - 0;
#X obj 398 1 t f f f, f 14;
#X obj 401 -81 hsl 128 15 0 16 0 0 empty \$0-stepsGUI STEPS -2 -8 0 10 #c4fcc4 #000000 #000000 0 1;
#X floatatom 398 -40 5 0 0 0 - - - 0;
#X obj 398 -63 i;
#X obj 398 252 expr ($f1 * $f2) % $f3, f 89;
#X obj 662 190 t b b f;
#X text 887 -101 (COUNT*HITS)%STEPS;
#X msg 455 41 0;
#X obj 474 314 r \$0-steps;
#X obj 505 20 s \$0-steps;
#X obj 314 -59 r \$0-resetH;
#X obj 662 214 s \$0-resetH;
#X obj 590 131 s \$0-hits;
#X obj 1018 94 r \$0-steps;
#X obj 416 277 r \$0-hits;
#X obj 592 322 r \$0-steps;
#X obj 592 373 s \$0-euclidSimple;
#X msg 592 348 resize \$1;
#N canvas 0 22 450 278 (subpatch) 0;
#X array \$0-euclidSimple 7 float 3;
#A 0 1 0 0 0 0 0 0;
#X coords 0 1.1 7 -0.1 150 45 1;
#X restore 88 19 graph;
#X obj 107 208 mod;
#X obj 138 189 r \$0-steps;
#X obj 107 233 tabread \$0-euclidSimple;
#X obj 21 136 inlet;
#X obj 81 -16 hsl 128 15 0 1 0 0 \$0-hitsGUI empty HITS -2 -8 0 10 #e0c4fc #000000 #000000 0 1;
#X obj 80 -50 hsl 128 15 0 16 0 0 \$0-stepsGUI empty STEPS -2 -8 0 10 #c4fcc4 #000000 #000000 0 1;
#X floatatom 211 -53 5 0 0 0 - \$0-steps - 0;
#X floatatom 212 -18 5 0 0 0 - \$0-hits - 0;
#X obj 383 416 tabwrite \$0-euclidSimple;
#X obj 398 164 t f f, f 22;
#X obj 20 160 t b b;
#X obj 90 70 hsl 150 10 0 7 0 0 empty \$0-seqGUI empty -2 -8 0 10 #dcdcdc #000000 #000000 0 1;
#X obj 105 -138 s \$0-seqGUI;
#X obj 105 -185 r \$0-steps;
#X obj 140 212 s \$0-seqGUI;
#X msg 106 -160 range 0 \$1;
#X obj 117 164 f;
#X obj 157 164 + 1;
#X obj 110 270 sel 1;
#X obj 110 310 bng 15 250 50 0 empty empty empty 17 7 0 10 #fcfcfc #000000 #000000;
#X obj 110 350 outlet;
#X obj 368 73 f;
#X obj 408 73 + 1;
#X connect 0 0 51 0;
#X connect 3 0 39 0;
#X connect 4 0 10 0;
#X connect 4 0 23 0;
#X connect 5 0 4 0;
#X connect 6 0 7 0;
#X connect 6 0 38 0;
#X connect 7 0 8 0;
#X connect 9 0 8 0;
#X connect 10 0 16 0;
#X connect 11 0 0 0;
#X connect 11 1 3 1;
#X connect 11 2 18 0;
#X connect 11 2 20 0;
#X connect 12 0 14 0;
#X connect 13 0 11 0;
#X connect 14 0 13 0;
#X connect 15 0 6 0;
#X connect 16 0 22 0;
#X connect 16 1 15 0;
#X connect 16 2 15 1;
#X connect 18 0 51 1;
#X connect 19 0 9 0;
#X connect 21 0 13 0;
#X connect 24 0 4 1;
#X connect 24 0 15 2;
#X connect 25 0 6 1;
#X connect 26 0 28 0;
#X connect 28 0 27 0;
#X connect 30 0 32 0;
#X connect 30 0 44 0;
#X connect 31 0 30 1;
#X connect 32 0 48 0;
#X connect 33 0 40 0;
#X connect 39 0 15 0;
#X connect 39 1 38 1;
#X connect 40 1 46 0;
#X connect 43 0 45 0;
#X connect 45 0 42 0;
#X connect 46 0 47 0;
#X connect 46 0 30 0;
#X connect 47 0 46 1;
#X connect 48 0 49 0;
#X connect 49 0 50 0;
#X connect 51 0 52 0;
#X connect 51 0 3 0;
#X connect 52 0 51 1;
#X coords 0 -1 1 1 189 186 1 67 -94;
