#N canvas 573 119 785 654 10;
#X obj 285 93 bng 20 400 50 0 empty boom boom 0 -6 1 8 #fcfcfc #202020 #202020;
#N canvas 131 35 293 592 pressurewave 0;
#X obj 149 525 *~;
#X obj 31 270 sig~ 1;
#X obj 31 292 -~;
#X obj 31 393 *~;
#X obj 1 462 lop~ 10000;
#X obj 31 313 *~ 500;
#X obj 31 415 hip~ 10;
#X obj 1 1 r~ \$0-feedback;
#X obj 1 25 delwrite~ \$0-variabledelay 10000;
#X obj 31 361 vd~ \$0-variabledelay;
#X obj 149 546 s~ \$0-feedback;
#X obj 91 245 -~ 0.0001;
#X obj 91 144 del 3;
#X obj 141 143 * 8000;
#X obj 1 246 inlet~ sound;
#X obj 121 73 inlet delay;
#X obj 141 119 inlet sweep;
#X obj 91 52 inlet trigger;
#X obj 165 478 inlet feedback;
#X obj 1 546 outlet~;
#X obj 121 97 * 100;
#X msg 91 202 1 \, 0 \$1;
#X obj 91 224 vline~;
#X obj 91 181 f 1000;
#X obj 165 502 * 0.99;
#X connect 0 0 10 0;
#X connect 1 0 2 0;
#X connect 2 0 5 0;
#X connect 3 0 6 0;
#X connect 4 0 0 0;
#X connect 4 0 19 0;
#X connect 5 0 9 0;
#X connect 6 0 4 0;
#X connect 7 0 8 0;
#X connect 9 0 3 0;
#X connect 11 0 2 1;
#X connect 11 0 3 1;
#X connect 12 0 23 0;
#X connect 13 0 23 1;
#X connect 14 0 4 0;
#X connect 15 0 20 0;
#X connect 16 0 13 0;
#X connect 17 0 12 0;
#X connect 18 0 24 0;
#X connect 20 0 12 1;
#X connect 21 0 22 0;
#X connect 22 0 11 0;
#X connect 23 0 21 0;
#X connect 24 0 0 1;
#X restore 259 490 pd pressurewave;
#X obj 583 522 clip~ -1 1;
#X obj 362 473 hsl 64 12 0 1 0 1 empty empty feedback 15 6 1 8 #fcfcfc #000000 #000000 6300 1;
#X obj 567 174 hsl 64 12 0 1 0 1 empty empty vol 15 6 1 8 #fcfcfc #000000 #000000 0 1;
#X obj 548 191 *~;
#X obj 548 213 throw~ out;
#X obj 551 235 hsl 64 12 0 1 0 1 empty empty fx 15 6 1 8 #fcfcfc #000000 #000000 0 1;
#X obj 532 252 *~;
#X obj 583 498 catch~ out;
#X obj 399 171 hsl 64 12 0 1 0 1 empty empty vol 15 6 1 8 #fcfcfc #000000 #000000 3600 1;
#X obj 380 188 *~;
#X obj 380 210 throw~ out;
#X obj 373 235 hsl 64 12 0 1 0 1 empty empty fx 15 6 1 8 #fcfcfc #000000 #000000 0 1;
#X obj 354 252 *~;
#X obj 266 191 r trig;
#X obj 285 131 s trig;
#X obj 381 83 r trig;
#X obj 549 129 del 30;
#X obj 549 106 r trig;
#X obj 602 89 hsl 64 12 0 1 0 1 empty empty delay 15 6 1 8 #fcfcfc #000000 #000000 0 1;
#N canvas 329 191 208 358 fireball 0;
#X obj -36 130 noise~;
#X obj -36 256 *~;
#X obj 39 -52 inlet trigger;
#X obj -36 276 outlet~;
#X obj -36 172 lop~ 70;
#X obj -36 193 lop~ 70;
#X obj -36 151 bp~ 70 1;
#X obj 71 102 *~;
#X obj -36 235 hip~ 5;
#X obj 71 58 line;
#X obj 71 79 sig~;
#X obj 71 144 lop~ 5;
#X obj 39 -31 trigger b b;
#X obj 31 123 + 40;
#X msg 111 28 1 100;
#X obj 39 -8 del 100;
#X msg 39 29 0 8000;
#X obj 31 102 * 100;
#X obj 71 124 *~;
#X obj -36 214 *~ 10;
#X connect 0 0 6 0;
#X connect 1 0 3 0;
#X connect 2 0 12 0;
#X connect 4 0 5 0;
#X connect 5 0 19 0;
#X connect 6 0 4 0;
#X connect 7 0 18 0;
#X connect 7 0 18 1;
#X connect 8 0 1 0;
#X connect 9 0 10 0;
#X connect 9 0 17 0;
#X connect 10 0 7 0;
#X connect 10 0 7 1;
#X connect 11 0 1 1;
#X connect 12 0 15 0;
#X connect 12 1 14 0;
#X connect 13 0 5 1;
#X connect 13 0 4 1;
#X connect 13 0 6 1;
#X connect 14 0 9 0;
#X connect 15 0 16 0;
#X connect 16 0 9 0;
#X connect 17 0 13 0;
#X connect 18 0 11 0;
#X connect 19 0 8 0;
#X restore 549 151 pd fireball;
#N canvas 449 297 190 229 shockwave 0;
#X obj 2 170 cos~;
#X obj 2 87 line~;
#X obj 2 150 wrap~;
#X obj 2 110 *~;
#X obj 2 32 t b b;
#X msg 2 58 0 10;
#X obj 2 190 hip~ 1;
#X obj 2 3 inlet trigger;
#X obj 2 210 outlet~;
#X msg 37 59 1 0;
#X obj 2 130 *~ 5;
#X connect 0 0 6 0;
#X connect 1 0 3 0;
#X connect 1 0 3 1;
#X connect 2 0 0 0;
#X connect 3 0 10 0;
#X connect 4 0 5 0;
#X connect 4 1 9 0;
#X connect 5 0 1 0;
#X connect 6 0 8 0;
#X connect 7 0 4 0;
#X connect 9 0 1 0;
#X connect 10 0 2 0;
#X restore 266 213 pd shockwave;
#X obj 283 235 hsl 64 12 0 1 0 1 empty shockwave vol 15 6 1 8 #fcfcfc #000000 #000000 1700 1;
#X obj 265 252 *~;
#X obj 265 274 throw~ out;
#X obj 337 455 hsl 64 12 0 1 0 1 empty empty sweep 15 6 1 8 #fcfcfc #000000 #000000 4300 1;
#X obj 312 438 hsl 64 12 0 1 0 1 empty empty delay 15 6 1 8 #fcfcfc #000000 #000000 5000 1;
#X obj 284 414 r trig;
#X obj 258 548 throw~ out;
#X obj 491 89 hsl 64 12 0 1 0 1 empty empty spread 15 6 1 8 #fcfcfc #000000 #000000 5800 1;
#N canvas 143 170 222 478 blast 0;
#X obj 3 -21 noise~;
#X obj 4 211 *~;
#X obj 4 90 clip~ -1 1;
#X obj 4 46 hip~ 20;
#X obj 4 191 bp~ 6000 1;
#X obj 105 97 *~;
#X obj 4 171 cos~;
#X obj 76 -67 -;
#X obj 28 -62 * 7000;
#X obj 76 -94 swap 1;
#X obj 4 271 hip~ 20;
#X obj 4 251 hip~ 20;
#X obj 4 231 hip~ 20;
#X obj 4 151 *~;
#X obj 20 131 +~ 0.5;
#X obj 4 24 vcf~ 7000 2;
#X obj 40 0 line~;
#X obj 6 -145 inlet;
#X obj 6 -124 t b f f;
#X msg 28 -41 \$1 30;
#X obj 4 68 *~ 50;
#X obj 76 -22 + 1.5;
#X obj 76 -43 * 3.5;
#X obj 4 311 outlet~;
#X obj 4 291 *~ 0.3;
#X obj 105 71 vline~;
#X msg 105 48 1 \, 0 \$1;
#X obj 105 24 f;
#X obj 137 -142 inlet decay;
#X obj 137 -41 * 7000;
#X obj 121 2 *;
#X obj 28 -92 pow 2;
#X connect 0 0 15 0;
#X connect 1 0 12 0;
#X connect 2 0 13 0;
#X connect 3 0 20 0;
#X connect 4 0 1 0;
#X connect 5 0 1 1;
#X connect 5 0 14 0;
#X connect 6 0 4 0;
#X connect 7 0 22 0;
#X connect 7 0 30 0;
#X connect 8 0 19 0;
#X connect 9 0 7 0;
#X connect 9 1 7 1;
#X connect 10 0 24 0;
#X connect 11 0 10 0;
#X connect 12 0 11 0;
#X connect 13 0 6 0;
#X connect 14 0 13 1;
#X connect 15 0 3 0;
#X connect 16 0 15 1;
#X connect 17 0 18 0;
#X connect 18 0 27 0;
#X connect 18 1 31 0;
#X connect 18 2 9 0;
#X connect 19 0 16 0;
#X connect 20 0 2 0;
#X connect 21 0 15 2;
#X connect 22 0 21 0;
#X connect 24 0 23 0;
#X connect 25 0 5 0;
#X connect 25 0 5 1;
#X connect 26 0 25 0;
#X connect 27 0 26 0;
#X connect 28 0 29 0;
#X connect 29 0 30 1;
#X connect 30 0 27 1;
#X connect 31 0 8 0;
#X restore 381 144 pd blast;
#X obj 437 487 combsweep;
#X obj 437 383 sdel~;
#X obj 438 524 *~;
#X obj 470 322 hsl 64 12 0 1 0 1 empty empty delay 15 6 1 8 #fcfcfc #000000 #000000 4600 1;
#X obj 467 339 * 100;
#X obj 498 449 hsl 64 12 0 1 0 1 empty empty width 15 6 1 8 #fcfcfc #000000 #000000 4000 1;
#X obj 466 405 r trig;
#X obj 457 509 hsl 64 12 0 1 0 1 empty empty vol 15 6 1 8 #fcfcfc #000000 #000000 900 1;
#X obj 438 548 throw~ out;
#X obj 354 274 throw~ fx;
#X obj 532 274 throw~ fx;
#X obj 612 445 catch~ fx;
#X obj 583 468 s~ pfx;
#X obj 259 392 r~ pfx;
#X obj 632 468 s~ cfx;
#X obj 436 360 r~ cfx;
#X obj 258 527 *~;
#X obj 277 512 hsl 64 12 0 1 0 1 empty empty vol 15 6 1 8 #fcfcfc #000000 #000000 6300 1;
#X obj 466 427 del 30;
#X obj 506 368 hsl 64 12 0 1 0 1 empty empty delay 15 6 1 8 #fcfcfc #000000 #000000 5800 1;
#X obj 503 385 * 200;
#X obj 495 466 * 20;
#X obj 436 128 hsl 64 12 0 1 0 1 empty empty decay 15 6 1 8 #fcfcfc #000000 #000000 500 1;
#X obj 599 106 * 500;
#N canvas 585 385 245 430 blast 0;
#X obj 16 111 / 200;
#X obj 44 -71 del 80;
#X obj 120 11 random 5;
#X obj 120 33 + 25;
#X obj 120 -15 del 80;
#X obj 16 -131 random 8;
#X obj 16 -109 + 8;
#X obj 44 -48 random 10;
#X obj 44 -26 + 15;
#X obj 157 -132 random 100;
#X obj 81 -131 random 50;
#X obj 75 -173 t b b b b b;
#X obj 75 -202 del 30;
#X obj 112 -222 + 5;
#X obj 16 135 outlet noiseval;
#X obj 11 -272 inlet trigger;
#X obj 112 -273 inlet spread;
#X obj 158 -173 * 300;
#X obj 112 -243 * 100;
#X connect 0 0 14 0;
#X connect 1 0 4 0;
#X connect 1 0 7 0;
#X connect 2 0 3 0;
#X connect 3 0 0 0;
#X connect 4 0 2 0;
#X connect 5 0 6 0;
#X connect 6 0 0 0;
#X connect 7 0 8 0;
#X connect 8 0 0 0;
#X connect 9 0 4 1;
#X connect 10 0 1 1;
#X connect 11 0 1 0;
#X connect 11 1 5 0;
#X connect 11 2 10 0;
#X connect 11 3 9 0;
#X connect 12 0 11 0;
#X connect 13 0 12 1;
#X connect 15 0 12 0;
#X connect 16 0 17 0;
#X connect 16 0 18 0;
#X connect 17 0 10 1;
#X connect 17 0 9 1;
#X connect 18 0 13 0;
#X restore 381 107 pd blast control;
#X obj 109 133 hsl 64 12 0 1 0 1 shockwave empty shockwave 15 6 1 8 #fcfcfc #000000 #000000 1700 1;
#X obj 583 555 outlet~;
#X obj 114 71 inlet;
#X obj 109 114 bng 15 250 50 0 boom empty empty 0 -8 0 10 #fcfcfc #000000 #000000;
#X connect 0 0 16 0;
#X connect 1 0 48 0;
#X connect 2 0 58 0;
#X connect 3 0 1 4;
#X connect 4 0 5 1;
#X connect 5 0 6 0;
#X connect 7 0 8 1;
#X connect 8 0 42 0;
#X connect 9 0 2 0;
#X connect 10 0 11 1;
#X connect 11 0 12 0;
#X connect 13 0 14 1;
#X connect 14 0 41 0;
#X connect 15 0 22 0;
#X connect 17 0 56 0;
#X connect 18 0 21 0;
#X connect 19 0 18 0;
#X connect 20 0 55 0;
#X connect 21 0 5 0;
#X connect 21 0 8 0;
#X connect 22 0 24 0;
#X connect 23 0 24 1;
#X connect 24 0 25 0;
#X connect 26 0 1 3;
#X connect 27 0 1 2;
#X connect 28 0 1 1;
#X connect 30 0 56 1;
#X connect 31 0 11 0;
#X connect 31 0 14 0;
#X connect 32 0 34 0;
#X connect 33 0 32 0;
#X connect 34 0 40 0;
#X connect 35 0 36 0;
#X connect 36 0 33 1;
#X connect 37 0 53 0;
#X connect 38 0 50 0;
#X connect 39 0 34 1;
#X connect 43 0 44 0;
#X connect 43 0 46 0;
#X connect 45 0 1 0;
#X connect 47 0 33 0;
#X connect 48 0 29 0;
#X connect 49 0 48 1;
#X connect 50 0 32 1;
#X connect 51 0 52 0;
#X connect 52 0 50 1;
#X connect 53 0 32 2;
#X connect 54 0 31 1;
#X connect 55 0 18 1;
#X connect 56 0 31 0;
#X connect 59 0 60 0;
#X coords 0 -1 1 1 88 119 1 100 100;
