#N canvas 217 102 1096 704 12;
#X declare -lib ceammc;
#X declare -lib cyclone;
#X declare -stdpath ./;
#X obj 897 601 ui.gain~ @size 120 38 @receive "(null)" @send "(null)" @pinned 0 @presetname "ui.gain~.0" @mouse_events 0 @background_color 0.93 0.93 0.93 1 @border_color 0.6 0.6 0.6 1 @label_color 0 0 0 1 @knob_color 0 0.75 1 1 @fontname "Helvetica" @fontweight "normal" @fontslant "roman" @fontsize 11 @label "(null)" @label_inner 0 @label_side "top" @label_align "left" @label_valign "top" @label_margins 0 0 @max 0 @min -60 @output_value 0 @relative 1 @midi_channel 0 @midi_control -1 @midi_pickup 1 @show_range 1;
#X obj 1030 606 ui.dsp~ @size 30 30 @receive "(null)" @send "(null)" @pinned 0 @background_color 0.93 0.93 0.93 1 @border_color 0.6 0.6 0.6 1 @label_color 0 0 0 1 @active_color 0 0.75 1 1 @fontname "Helvetica" @fontweight "normal" @fontslant "roman" @fontsize 11 @label "(null)" @label_inner 0 @label_side "top" @label_align "left" @label_valign "top" @label_margins 0 0;
#X obj 897 657 dac~;
#X obj 43 547 reverb;
#X obj 43 153 euclid-generator;
#X obj 43 349 explosion-kick;
#X obj 264 348 explosion-snare;
#X obj 264 152 euclid-generator;
#X obj 43 126 bng 19 250 50 0 empty click empty 0 -10 0 12 #fcfcfc #000000 #000000;
#X obj 264 123 bng 19 250 50 0 empty click empty 0 -10 0 12 #fcfcfc #000000 #000000;
#X obj 43 657 throw~ fx-out;
#X obj 303 657 throw~ fx-out;
#X obj 910 87 declare -lib ceammc;
#X obj 897 492 catch~ fx-out;
#X obj 484 151 euclid-generator;
#X obj 484 123 bng 19 250 50 0 empty click empty 0 -10 0 12 #fcfcfc #000000 #000000;
#X obj 910 61 declare -lib cyclone;
#N canvas 503 280 781 507 vocplayer 0;
#X msg 104 74 pause;
#X msg 170 72 continue;
#X obj 262 160 nbx 4 14 -1e+37 1e+37 0 0 empty empty empty 0 -8 0 10 #dcdcdc #000000 #000000 0 256;
#X msg 237 100 loop \$1;
#X obj 237 76 tgl 15 0 empty empty empty 17 7 0 10 #dcdcdc #000000 #000000 0 1;
#X obj 201 101 bng 15 250 50 0 empty empty empty 17 7 0 10 #dcdcdc #000000 #000000;
#X obj 345 211 bng 15 250 50 0 empty empty empty 17 7 0 10 #dcdcdc #000000 #000000;
#X text 366 209 <= finished;
#X msg 160 44 open vacuous.wav;
#X obj 180 101 tgl 15 0 empty empty empty 17 7 0 10 #dcdcdc #000000 #000000 0 1;
#X text 89 174 click: opens a new file =>, f 13;
#X msg 41 51 open stereo.wav;
#X obj 237 124 else/pack2 range f f;
#X floatatom 295 86 5 0 0 0 - - - 0;
#X obj 298 62 hsl 128 15 0 1 0 0 empty empty empty -2 -8 0 10 #dcdcdc #000000 #000000 0 1;
#X floatatom 354 104 5 0 0 0 - - - 0;
#X obj 357 83 hsl 128 15 0 1 0 0 empty empty empty -2 -8 0 10 #dcdcdc #000000 #000000 0 1;
#X text 338 62 minimum;
#X text 398 83 maximum;
#X obj 180 183 else/pvoc.player~ stereo.wav;
#X obj 345 160 nbx 4 14 -1e+37 1e+37 0 0 empty empty empty 0 -8 0 10 #dcdcdc #000000 #000000 0 256;
#X text 228 159 speed;
#X text 394 158 transposition;
#X obj 171 215 else/out~;
#X connect 0 0 19 0;
#X connect 1 0 19 0;
#X connect 2 0 19 1;
#X connect 3 0 19 0;
#X connect 4 0 3 0;
#X connect 5 0 19 0;
#X connect 6 0 5 0;
#X connect 8 0 19 0;
#X connect 9 0 19 0;
#X connect 11 0 19 0;
#X connect 12 0 19 0;
#X connect 13 0 12 1;
#X connect 14 0 13 0;
#X connect 15 0 12 2;
#X connect 16 0 15 0;
#X connect 19 0 23 0;
#X connect 19 1 23 1;
#X connect 19 2 6 0;
#X connect 20 0 19 2;
#X restore 962 160 pd vocplayer;
#N canvas 498 195 325 408 OSC-OUT 0;
#X obj 30 332 udpsend;
#X obj 30 204 packOSC;
#X obj 30 365 tgl 15 0 empty empty empty 17 7 0 10 #fcfcfc #000000 #000000 0 1;
#X msg 83 300 disconnect;
#X msg 48 245 connect 127.0.0.1 7000;
#X obj 31 12 r \$0-video1;
#X obj 31 47 random 4;
#X obj 30 79 nbx 5 17 -1e+37 1e+37 0 0 empty empty empty 0 -10 0 12 #fcfcfc #000000 #000000 0 256;
#X msg 30 158 /composition/layers/1/clips/\$1/connect;
#X obj 30 114 + 1;
#X msg 69 273 connect 192.168.2.158 7000;
#X connect 0 0 2 0;
#X connect 1 0 0 0;
#X connect 3 0 0 0;
#X connect 4 0 0 0;
#X connect 5 0 6 0;
#X connect 6 0 7 0;
#X connect 7 0 9 0;
#X connect 8 0 1 0;
#X connect 9 0 8 0;
#X connect 10 0 0 0;
#X restore 973 456 pd OSC-OUT;
#X obj 149 349 s \$0-video1;
#X obj 463 544 echo;
#N canvas 348 364 684 379 redux 0;
#X obj 56 20 inlet~;
#X obj 54 311 outlet~;
#X msg 103 227 @bits \$1;
#X msg 205 227 @downsamp \$1;
#X obj 112 143 ui.knob @size 40 40 @receive "(null)" @send "(null)" @pinned 0 @presetname "ui.knob.2" @mouse_events 0 @background_color 0.93 0.93 0.93 1 @border_color 0.6 0.6 0.6 1 @label_color 0 0 0 1 @scale_color 0.6 0.6 0.6 1 @knob_color 0 0.75 1 1 @fontname "Helvetica" @fontweight "normal" @fontslant "roman" @fontsize 11 @label "(null)" @label_inner 0 @label_side "top" @label_align "left" @label_valign "top" @label_margins 0 0 @min 0 @max 16 @scale "linear" @midi_channel 0 @midi_control -1 @midi_pickup 1 @show_range 0 @show_value 0 @active_scale 0;
#X obj 110 43 loadbang;
#X msg 111 72 16;
#X obj 170 142 ui.knob @size 41 41 @receive "(null)" @send "(null)" @pinned 0 @presetname "ui.knob.6" @mouse_events 0 @background_color 0.93 0.93 0.93 1 @border_color 0.6 0.6 0.6 1 @label_color 0 0 0 1 @scale_color 0.6 0.6 0.6 1 @knob_color 0 0.75 1 1 @fontname "Helvetica" @fontweight "normal" @fontslant "roman" @fontsize 11 @label "(null)" @label_inner 0 @label_side "top" @label_align "left" @label_valign "top" @label_margins 0 0 @min 0 @max 200 @scale "linear" @midi_channel 0 @midi_control -1 @midi_pickup 1 @show_range 0 @show_value 0 @active_scale 0;
#X obj 132 205 nbx 5 17 -1e+37 1e+37 0 0 empty empty empty 0 -10 0 12 #fcfcfc #000000 #000000 0 256;
#X obj 252 205 nbx 5 17 -1e+37 1e+37 0 0 empty empty empty 0 -10 0 12 #fcfcfc #000000 #000000 0 256;
#X obj 55 263 fx.bitdown~;
#X text 167 118 Samples;
#X text 110 119 Bits;
#X connect 0 0 10 0;
#X connect 2 0 10 0;
#X connect 3 0 10 0;
#X connect 4 0 2 0;
#X connect 4 0 8 0;
#X connect 5 0 6 0;
#X connect 6 0 4 0;
#X connect 7 0 3 0;
#X connect 7 0 9 0;
#X connect 10 0 1 0;
#X coords 0 -1 1 1 150 100 1 100 100;
#X restore 303 547 pd redux;
#X obj 463 654 throw~ fx-out;
#N canvas 343 133 969 680 hihat 0;
#X floatatom 696 108 5 0 0 0 - transpo-set - 0;
#X floatatom 332 138 5 0 0 0 - speed-set - 0;
#X floatatom 239 140 7 0 0 0 - location-set - 0;
#N canvas 471 38 754 709 fft-analysis 0;
#X obj 56 486 *~;
#X obj 23 486 *~;
#X obj 23 508 -~;
#X obj 172 484 *~;
#X obj 141 484 *~;
#X obj 141 506 +~;
#X obj 114 202 *~;
#X obj 83 202 *~;
#X obj 55 202 *~;
#X obj 24 202 *~;
#X obj 24 227 +~;
#X obj 128 394 *~;
#X obj 24 631 *~;
#X obj 239 439 rfft~;
#X obj 123 170 rfft~;
#X obj 23 573 rifft~;
#X obj 25 655 outlet~;
#X obj 98 394 *~;
#X obj 98 416 +~;
#X obj 129 227 -~;
#X obj 23 440 *~;
#X obj 56 441 *~;
#X obj 127 633 r window-size;
#X obj 370 603 r window-size;
#X obj 370 652 block~;
#X obj 24 358 +~ 1e-15;
#X obj 23 607 *~;
#X obj 56 607 tabreceive~ \$0-hann;
#X obj 127 655 expr 2/(3*$f1);
#X obj 555 572 loadbang;
#X msg 370 627 set \$1 4;
#X obj 98 440 q8_rsqrt~;
#N canvas 210 38 1029 784 read-windows 0;
#X obj 146 667 *~;
#X obj 469 418 r window-size;
#X obj 276 282 f;
#X obj 200 51 r window-size;
#X obj 200 99 /;
#X obj 325 669 *~;
#X obj 276 231 bang~;
#X obj 146 531 line~;
#X obj 200 124 * 1000;
#X obj 398 196 r speed;
#X obj 294 256 r location;
#X obj 318 284 +;
#X obj 398 249 *;
#X obj 294 341 / 1000;
#X obj 276 368 *;
#X text 308 368 reading location (samples);
#X obj 165 574 / 4;
#X obj 398 219 * 0.01;
#X floatatom 469 475 7 0 0 0 - - - 0;
#X obj 469 451 *;
#X obj 589 324 r transpo;
#X obj 589 348 * 0.01;
#X obj 589 372 + 69;
#X obj 589 397 mtof;
#X obj 589 424 / 440;
#X obj 504 451 t b f;
#X obj 146 693 outlet~;
#X obj 325 694 outlet~;
#X obj 343 638 tabreceive~ \$0-hann;
#X obj 763 390 r location;
#X msg 763 413 0;
#X obj 763 436 s speed;
#X obj 778 530 r speed;
#X msg 778 554 set \$1;
#X obj 778 579 s speed-set;
#X text 527 473 stretched window size (samples), f 16;
#X obj 887 529 r transpo;
#X msg 887 555 set \$1;
#X obj 887 580 s transpo-set;
#X obj 821 123 r location;
#X msg 835 309 set \$1;
#X obj 821 169 t b f;
#X obj 835 286 f;
#X obj 763 200 int;
#X obj 763 232 sel 0;
#X msg 822 203 1;
#X msg 822 226 0;
#X obj 763 257 del 300;
#X obj 835 335 s location-set;
#X obj 146 631 tabread4~ \$0-sample;
#X obj 324 611 tabread4~ \$0-sample;
#X obj 294 317 r \$0-insamprate;
#X obj 521 522 r rewind;
#X msg 521 700 \; location \$1;
#X floatatom 199 146 5 0 0 0 - - - 0;
#X obj 200 75 t f b;
#X obj 232 99 samplerate~;
#X obj 199 171 / 4;
#X obj 353 288 s see-loc;
#X obj 830 145 r see-loc;
#X obj 313 394 / 2;
#X obj 276 394 -;
#X text 349 391 back up 1/2 window;
#X obj 146 597 -~;
#X text 337 52 Read two windows out of the recorded sample \, one 1/4 ahead of the other. The mid point of the front window is specified by "location". If "speed" is nonzero \, "location" automatically precesses., f 45;
#X obj 521 676 * -0.5;
#X text 24 582 "back" window 1/4 cycle behind "front" one, f 16;
#X text 230 171 computation period (msec) for overlap of 4;
#X text 252 145 msec in a window;
#X obj 521 622 /;
#X obj 521 650 * 1000;
#X obj 521 598 t f b;
#X obj 553 622 samplerate~;
#X obj 521 575 f;
#X msg 890 680 \; rewind bang \; speed \$1;
#X obj 890 653 r auto;
#X obj 775 654 r no-detune;
#X text 766 484 reflect control changes;
#X text 766 501 in main window.;
#X text 805 622 misc controls;
#X obj 146 449 f;
#X obj 146 420 b;
#X msg 146 503 0 \, \$1 \$2;
#X msg 775 676 \; transpo 0;
#X text 717 63 if location changes \, update number box in main window via "location-set" \, but taking care to limit frequency of updates., f 38;
#X text 841 402 setting location by hand sets speed to zero., f 19;
#X text 550 547 "rewind" control takes us to a location depending on stretched window size., f 25;
#X text 434 242 loop to precess the location according to the "speed" parameter., f 22;
#X obj 146 476 pack f f;
#X obj 708 323 s location-comp;
#X connect 0 0 26 0;
#X connect 1 0 19 0;
#X connect 2 0 11 0;
#X connect 2 0 14 0;
#X connect 3 0 55 0;
#X connect 4 0 8 0;
#X connect 5 0 27 0;
#X connect 6 0 2 0;
#X connect 7 0 63 0;
#X connect 7 0 50 0;
#X connect 8 0 54 0;
#X connect 9 0 17 0;
#X connect 10 0 2 1;
#X connect 11 0 2 1;
#X connect 11 0 58 0;
#X connect 12 0 11 1;
#X connect 13 0 14 1;
#X connect 14 0 61 0;
#X connect 16 0 63 1;
#X connect 17 0 12 0;
#X connect 18 0 16 0;
#X connect 18 0 60 0;
#X connect 18 0 73 1;
#X connect 18 0 80 1;
#X connect 19 0 18 0;
#X connect 20 0 21 0;
#X connect 21 0 22 0;
#X connect 22 0 23 0;
#X connect 23 0 24 0;
#X connect 24 0 25 0;
#X connect 25 0 19 0;
#X connect 25 1 19 1;
#X connect 28 0 5 1;
#X connect 28 0 0 1;
#X connect 29 0 30 0;
#X connect 30 0 31 0;
#X connect 32 0 33 0;
#X connect 33 0 34 0;
#X connect 36 0 37 0;
#X connect 37 0 38 0;
#X connect 39 0 41 0;
#X connect 40 0 48 0;
#X connect 41 0 43 0;
#X connect 41 1 42 1;
#X connect 42 0 40 0;
#X connect 42 0 89 0;
#X connect 43 0 44 0;
#X connect 44 0 45 0;
#X connect 44 0 47 0;
#X connect 45 0 43 1;
#X connect 46 0 43 1;
#X connect 47 0 46 0;
#X connect 47 0 42 0;
#X connect 49 0 0 0;
#X connect 50 0 5 0;
#X connect 51 0 13 0;
#X connect 52 0 73 0;
#X connect 54 0 57 0;
#X connect 55 0 4 0;
#X connect 55 1 56 0;
#X connect 56 0 4 1;
#X connect 57 0 12 1;
#X connect 57 0 88 1;
#X connect 59 0 41 0;
#X connect 60 0 61 1;
#X connect 61 0 81 0;
#X connect 61 0 49 1;
#X connect 61 0 50 1;
#X connect 63 0 49 0;
#X connect 65 0 53 0;
#X connect 69 0 70 0;
#X connect 70 0 65 0;
#X connect 71 0 69 0;
#X connect 71 1 72 0;
#X connect 72 0 69 1;
#X connect 73 0 71 0;
#X connect 75 0 74 0;
#X connect 76 0 83 0;
#X connect 80 0 88 0;
#X connect 81 0 80 0;
#X connect 82 0 7 0;
#X connect 88 0 82 0;
#X restore 123 142 pd read-windows;
#X obj 141 541 tabsend~ prev-imag;
#X obj 140 574 tabsend~ prev-real;
#X obj 25 14 tabreceive~ prev-real;
#X obj 83 38 tabreceive~ prev-imag;
#X text 277 14 recall previous output amplitude. Its phase will be added to the phase difference we measure from two windows in the the recorded sound.;
#X obj 126 78 *~;
#X obj 99 78 *~;
#X obj 99 100 +~;
#X obj 164 103 q8_rsqrt~;
#X obj 164 80 +~ 1e-20;
#X obj 83 128 *~;
#X obj 24 127 *~;
#X obj 182 299 r lock;
#X obj 34 254 lrshift~ 1;
#X obj 29 278 lrshift~ -1;
#X obj 146 254 lrshift~ 1;
#X obj 138 278 lrshift~ -1;
#X obj 42 309 *~;
#X obj 164 321 *~;
#X obj 24 334 +~;
#X obj 130 321 +~;
#X text 252 75 divide by the magnitude to make a unit-magnitude complex amplitude (phase only). The 1e-20 is to prevent overflows. q8_rsqrt~ is reciprocal square root.;
#X text 252 174 Take FT of the window in back. Multiply its conjugate by the normalized previous output. The result has the magnitude of the input sound and phase (previous output phase) minus (back window phase).;
#X text 254 379 Normalize again \, this time taking care to salt each channel with 1e-15 so that we get a unit complex number even if everything was zero heretofore.;
#X text 287 435 Now take the FT of the forward window and multiply it by the unit complex number from above. The magnitude will be that of the forward window and the phase will be the previous output phase plus the phase difference between the two analysis windows -- except that if "lock" is on \, they will be modified to agree progressively better with the inter-channel phase relationships of the input.;
#X text 254 251 If "lock" is on \, encourage neighboring channels to stay in phase by adding the two neighboring complex amplitudes. The result will tend toward the channel with the strongest amplitude. If the phase relationships between channels in the output and those in the input are in parallel \, then neighboring channels of the quotient will all have the same phase and this will not change any phases. (lrshift shifts the signal to the left or right depending on its argument.);
#X text 264 135 Read two windows \, one 1/4 length behind the other \, of the input sound \, with Hann window function (see inside).;
#X text 341 566 'set' message to block allows variable size, f 22;
#X msg 555 598 \; window-size 2048 \; transpo 0 \; rewind bang;
#X connect 0 0 2 1;
#X connect 1 0 2 0;
#X connect 2 0 34 0;
#X connect 2 0 15 0;
#X connect 3 0 5 1;
#X connect 4 0 5 0;
#X connect 5 0 33 0;
#X connect 5 0 15 1;
#X connect 6 0 19 1;
#X connect 7 0 19 0;
#X connect 8 0 10 1;
#X connect 9 0 10 0;
#X connect 10 0 47 0;
#X connect 10 0 46 0;
#X connect 10 0 52 0;
#X connect 11 0 18 1;
#X connect 12 0 16 0;
#X connect 13 0 1 1;
#X connect 13 0 3 1;
#X connect 13 1 0 1;
#X connect 13 1 4 1;
#X connect 14 0 9 1;
#X connect 14 0 7 1;
#X connect 14 1 6 1;
#X connect 14 1 8 1;
#X connect 15 0 26 0;
#X connect 17 0 18 0;
#X connect 18 0 31 0;
#X connect 19 0 48 0;
#X connect 19 0 49 0;
#X connect 19 0 53 0;
#X connect 20 0 1 0;
#X connect 20 0 4 0;
#X connect 21 0 0 0;
#X connect 21 0 3 0;
#X connect 22 0 28 0;
#X connect 23 0 30 0;
#X connect 25 0 17 1;
#X connect 25 0 17 0;
#X connect 25 0 20 0;
#X connect 26 0 12 0;
#X connect 27 0 26 1;
#X connect 28 0 12 1;
#X connect 29 0 61 0;
#X connect 30 0 24 0;
#X connect 31 0 20 1;
#X connect 31 0 21 1;
#X connect 32 0 14 0;
#X connect 32 1 13 0;
#X connect 35 0 39 1;
#X connect 35 0 39 0;
#X connect 35 0 44 0;
#X connect 36 0 38 1;
#X connect 36 0 38 0;
#X connect 36 0 43 0;
#X connect 38 0 40 1;
#X connect 39 0 40 0;
#X connect 40 0 42 0;
#X connect 41 0 43 1;
#X connect 41 0 44 1;
#X connect 42 0 41 0;
#X connect 43 0 8 0;
#X connect 43 0 7 0;
#X connect 44 0 9 0;
#X connect 44 0 6 0;
#X connect 45 0 50 1;
#X connect 45 0 51 1;
#X connect 46 0 50 0;
#X connect 47 0 50 0;
#X connect 48 0 51 0;
#X connect 49 0 51 0;
#X connect 50 0 52 1;
#X connect 51 0 53 1;
#X connect 52 0 25 0;
#X connect 53 0 11 0;
#X connect 53 0 11 1;
#X connect 53 0 21 0;
#X restore 237 212 pd fft-analysis;
#N canvas 260 23 531 738 phase-tables 0;
#N canvas 0 0 450 300 (subpatch) 0;
#X array prev-imag 4096 float 0;
#X coords 0 1000 4096 -1000 400 300 1;
#X restore 67 395 graph;
#N canvas 0 0 450 300 (subpatch) 0;
#X array prev-real 4096 float 0;
#X coords 0 500 4096 -500 400 300 1;
#X restore 67 40 graph;
#X restore 653 295 pd phase-tables;
#X obj 696 131 s transpo;
#X text 329 119 hundredths;
#X text 695 87 in cents;
#X text 475 110 normal;
#N canvas 385 188 595 536 hann-window 0;
#N canvas 0 0 450 300 (subpatch) 0;
#X array \$0-hann 2048 float 0;
#X coords 0 1 2047 0 300 100 1;
#X restore 148 395 graph;
#X obj 365 185 osc~;
#X obj 365 210 *~ -0.5;
#X obj 365 234 +~ 0.5;
#X obj 348 277 tabwrite~ \$0-hann;
#X obj 124 114 r window-size;
#X obj 195 238 /;
#X obj 213 206 samplerate~;
#X obj 195 316 s window-sec;
#X obj 105 252 swap;
#X obj 105 276 /;
#X obj 105 300 s window-hz;
#X obj 206 266 * 1000;
#X obj 206 293 s window-msec;
#X obj 124 149 t f b f;
#X msg 213 156 resize \$1;
#X obj 213 180 s \$0-hann;
#X obj 317 123 r window-hz;
#X msg 390 155 0;
#X obj 317 151 t f b;
#X text 94 21 calculate Hann window table (variable window size) and constants window-hz (fundamental frequency of analysis) \, window-sec and window-msec (analysis window size in seconds and msec)., f 56;
#X connect 1 0 2 0;
#X connect 2 0 3 0;
#X connect 3 0 4 0;
#X connect 5 0 14 0;
#X connect 6 0 8 0;
#X connect 6 0 12 0;
#X connect 7 0 6 1;
#X connect 7 0 9 1;
#X connect 9 0 10 0;
#X connect 9 1 10 1;
#X connect 10 0 11 0;
#X connect 12 0 13 0;
#X connect 14 0 6 0;
#X connect 14 0 9 0;
#X connect 14 1 7 0;
#X connect 14 2 15 0;
#X connect 15 0 16 0;
#X connect 17 0 19 0;
#X connect 18 0 1 1;
#X connect 19 0 1 0;
#X connect 19 1 4 0;
#X connect 19 1 18 0;
#X restore 653 319 pd hann-window;
#N canvas 380 342 731 456 insample 0;
#N canvas 0 0 450 300 (subpatch) 0;
#X array \$0-sample 360448 float 0;
#X coords 0 1 360447 -1 400 150 1;
#X restore 302 143 graph;
#X obj 59 141 r read-sample;
#X obj 59 192 unpack s f;
#X obj 59 302 soundfiler;
#X text 418 343 read a sample;
#X obj 338 342 loadbang;
#X obj 59 218 t s b;
#X obj 112 221 symbol \$0-sample;
#X obj 59 253 pack s s;
#X msg 59 278 read -resize \$1 \$2;
#X obj 59 165 t a b;
#X obj 69 331 s \$0-samplength;
#X obj 156 192 s \$0-insamprate;
#X obj 59 365 /;
#X obj 59 389 * 1000;
#X obj 59 412 s \$0-samp-msec;
#X obj 97 365 r \$0-insamprate;
#X obj 70 78 hip~ 5;
#X obj 70 54 adc~ 1;
#X obj 60 17 inlet;
#X obj 132 54 samplerate~;
#X obj 60 106 tabwrite~ \$0-sample;
#X obj 132 78 s \$0-insamprate;
#X msg 338 366 \; read-sample ../sound/voice.wav;
#X obj 306 28 inlet;
#X obj 306 50 openpanel;
#X obj 306 75 s read-sample;
#X obj 156 166 f 44100;
#X connect 1 0 10 0;
#X connect 2 0 6 0;
#X connect 2 1 12 0;
#X connect 3 0 11 0;
#X connect 3 0 13 0;
#X connect 5 0 23 0;
#X connect 6 0 8 0;
#X connect 6 1 7 0;
#X connect 7 0 8 1;
#X connect 8 0 9 0;
#X connect 9 0 3 0;
#X connect 10 0 2 0;
#X connect 10 1 27 0;
#X connect 13 0 14 0;
#X connect 14 0 15 0;
#X connect 16 0 13 1;
#X connect 17 0 21 0;
#X connect 18 0 17 0;
#X connect 19 0 20 0;
#X connect 19 0 21 0;
#X connect 20 0 22 0;
#X connect 24 0 25 0;
#X connect 25 0 26 0;
#X connect 27 0 12 0;
#X restore 654 271 pd insample;
#X floatatom 799 269 7 0 0 0 - \$0-samp-msec - 0;
#X msg 492 262 ../sound/voice2.wav;
#X obj 479 293 s read-sample;
#X obj 696 166 tgl 15 0 empty empty empty 0 -6 0 8 #fcfcfc #000000 #000000 0 1;
#X obj 239 162 s location;
#X obj 332 162 s speed;
#X obj 733 585 s rewind;
#X msg 438 86 200;
#X msg 446 110 100;
#X msg 453 134 20;
#X text 467 85 contract;
#X text 483 134 expand;
#X obj 696 186 s lock;
#X text 696 70 detune;
#X text 239 85 location;
#X text 236 101 (stops;
#X text 241 116 motion);
#X text 330 103 motion in;
#X text 476 184 read input sound;
#X text 851 268 length \, msec;
#X floatatom 798 242 7 0 0 0 - window-size - 0;
#X msg 798 107 512;
#X msg 804 130 1024;
#X msg 809 153 2048;
#X msg 814 176 4096;
#X obj 798 202 s window-size;
#X text 725 58 window size \,;
#X text 795 80 samples;
#X text 281 61 ------- location controls -------;
#X text 850 241 (check);
#X obj 438 162 s auto;
#X obj 753 109 bng 19 250 50 0 no-detune empty empty 0 -6 0 8 #dfdfdf #000000 #000000;
#X text 673 244 file =>;
#X text 675 219 <= record;
#X text 833 106 <= set;
#X obj 706 20 declare -stdpath ./;
#X obj 803 568 bng 19 250 50 0 empty empty empty 0 -6 0 8 #dfdfdf #000000 #000000;
#X obj 654 221 bng 19 250 50 0 empty empty empty 0 -6 0 8 #dfdfdf #000000 #000000;
#X obj 728 244 bng 19 250 50 0 empty empty empty 0 -6 0 8 #dfdfdf #000000 #000000;
#X text 215 20 Ejemplo I07 de Audio del Help de PD;
#X msg 488 240 etc;
#X obj 241 521 *~;
#X obj 259 490 line~;
#X msg 354 413 1 5;
#X obj 254 287 t b b, f 15;
#X obj 255 238 r trig-tx;
#X obj 254 321 del 5;
#X obj 278 262 bng 19 250 50 0 empty empty empty 0 -10 0 12 #fcfcfc #000000 #000000;
#X obj 749 373 r \$0-samp-msec;
#X obj 750 402 nbx 5 17 -1e+37 1e+37 0 0 empty empty empty 0 -10 0 12 #fcfcfc #000000 #000000 0 256;
#X obj 670 399 nbx 5 17 -1e+37 1e+37 0 0 empty empty empty 0 -10 0 12 #fcfcfc #000000 #000000 0 256;
#X obj 631 371 r location-comp;
#X obj 710 470 tgl 19 0 empty empty empty 0 -10 0 12 #fcfcfc #000000 #000000 0 1;
#X obj 709 505 sel 1;
#X obj 712 441 >;
#X obj 708 537 t b b;
#X msg 706 569 1;
#X obj 634 586 s speed-set;
#X msg 255 448 0 \$1;
#X obj 274 355 r tx-decay;
#X obj 255 407 f;
#X obj 33 221 s tx-decay;
#X obj 110 166 hsl 64 12 0 127 0 1 empty empty decay 15 6 1 8 #fcfcfc #000000 #000000 6300 1;
#X obj 110 64 inlet;
#X obj 111 128 bng 17 250 50 0 empty empty empty 0 -10 0 10 #fcfcfc #000000 #000000;
#X obj 28 155 s trig-tx;
#X text 138 128 BANG;
#X msg 479 217 hh.wav;
#X obj 609 69 loadbang;
#X obj 610 104 t b b;
#X obj 256 574 *~;
#X obj 110 186 hsl 64 12 0 10 0 1 empty empty vol 15 6 1 8 #fcfcfc #000000 #000000 0 1;
#X obj 242 619 outlet~;
#X connect 0 0 5 0;
#X connect 1 0 16 0;
#X connect 2 0 15 0;
#X connect 3 0 52 0;
#X connect 12 0 13 0;
#X connect 14 0 23 0;
#X connect 18 0 41 0;
#X connect 19 0 41 0;
#X connect 20 0 41 0;
#X connect 32 0 36 0;
#X connect 33 0 36 0;
#X connect 34 0 36 0;
#X connect 35 0 36 0;
#X connect 47 0 17 0;
#X connect 48 0 10 0;
#X connect 49 0 10 1;
#X connect 51 0 13 0;
#X connect 52 0 81 0;
#X connect 53 0 52 1;
#X connect 54 0 53 0;
#X connect 55 0 57 0;
#X connect 55 1 54 0;
#X connect 56 0 55 0;
#X connect 56 0 58 0;
#X connect 57 0 71 0;
#X connect 59 0 60 0;
#X connect 60 0 65 1;
#X connect 61 0 65 0;
#X connect 62 0 61 0;
#X connect 63 0 64 0;
#X connect 64 0 66 0;
#X connect 65 0 63 0;
#X connect 66 0 67 0;
#X connect 66 1 47 0;
#X connect 67 0 68 0;
#X connect 69 0 53 0;
#X connect 70 0 71 1;
#X connect 71 0 69 0;
#X connect 73 0 72 0;
#X connect 74 0 75 0;
#X connect 75 0 76 0;
#X connect 78 0 13 0;
#X connect 79 0 80 0;
#X connect 80 0 20 0;
#X connect 80 1 78 0;
#X connect 81 0 83 0;
#X connect 82 0 81 1;
#X coords 0 -1 1 1 89 105 1 100 100;
#X restore 484 347 pd hihat;
#X obj 43 474 throw~ drums;
#X obj 264 472 throw~ drums;
#X obj 897 408 catch~ drums;
#X obj 897 456 s~ mix;
#X obj 43 518 r~ mix;
#X obj 303 518 r~ mix;
#X obj 463 515 r~ mix;
#X obj 484 458 throw~ drums;
#X obj 993 410 r~ input;
#N canvas 368 164 750 608 rand_filter 0;
#X obj 98 167 flt.lpf24~ 5000;
#X obj 43 27 ui.slider @size 120 15 @receive "(null)" @send "(null)" @pinned 0 @presetname "ui.slider.0" @mouse_events 0 @background_color 0.93 0.93 0.93 1 @border_color 0.6 0.6 0.6 1 @label_color 0 0 0 1 @knob_color 0 0.75 1 1 @text_color 0 0 0 1 @fontname "Helvetica" @fontweight "normal" @fontslant "roman" @fontsize 11 @label "(null)" @label_inner 0 @label_side "top" @label_align "left" @label_valign "top" @label_margins 0 0 @min 0 @max 1 @mode 0 @scale "log" @active_scale 0 @midi_channel 0 @midi_control -1 @midi_pickup 1 @show_value 0 @value_pos "center" @value_precision 2;
#X msg 44 260 @freq \$1;
#X obj 44 233 lin->lin 0 1 100 20000;
#X obj 67 107 *;
#X obj 87 78 hsl 162 19 0 1 0 0 empty empty empty -2 -10 0 12 #fcfcfc #000000 #000000 0 1;
#X obj 43 170 +;
#X obj 99 135 nbx 5 17 -1e+37 1e+37 0 0 empty empty empty 0 -10 0 12 #fcfcfc #000000 #000000 0 256;
#X obj 48 136 t b f;
#X obj 66 51 rand.f 0 1;
#X obj 60 208 ui.slider @size 120 14 @receive "(null)" @send "(null)" @pinned 0 @presetname "ui.slider.1" @mouse_events 0 @background_color 0.93 0.93 0.93 1 @border_color 0.6 0.6 0.6 1 @label_color 0 0 0 1 @knob_color 0 0.75 1 1 @text_color 0 0 0 1 @fontname "Helvetica" @fontweight "normal" @fontslant "roman" @fontsize 11 @label "(null)" @label_inner 0 @label_side "top" @label_align "left" @label_valign "top" @label_margins 0 0 @min 0 @max 1 @mode 0 @scale "linear" @active_scale 0 @midi_channel 0 @midi_control -1 @midi_pickup 1 @show_value 0 @value_pos "center" @value_precision 2;
#X connect 1 0 6 0;
#X connect 3 0 2 0;
#X connect 4 0 7 0;
#X connect 4 0 8 0;
#X connect 5 0 4 1;
#X connect 6 0 3 0;
#X connect 6 0 10 0;
#X connect 8 0 6 0;
#X connect 8 1 6 1;
#X connect 9 0 4 0;
#X restore 950 137 pd rand_filter;
#N canvas 237 275 508 424 udprcv 0;
#X obj 63 209 r trig;
#N canvas 449 297 190 229 shockwave 0;
#X obj 2 170 cos~;
#X obj 2 87 line~;
#X obj 2 150 wrap~;
#X obj 2 110 *~;
#X obj 2 32 t b b;
#X msg 2 58 0 10;
#X obj 2 190 hip~ 1;
#X obj 2 3 inlet trigger;
#X obj 2 210 outlet~;
#X msg 37 59 1 0;
#X obj 2 130 *~ 5;
#X connect 0 0 6 0;
#X connect 1 0 3 0;
#X connect 1 0 3 1;
#X connect 2 0 0 0;
#X connect 3 0 10 0;
#X connect 4 0 5 0;
#X connect 4 1 9 0;
#X connect 5 0 1 0;
#X connect 6 0 8 0;
#X connect 7 0 4 0;
#X connect 9 0 1 0;
#X connect 10 0 2 0;
#X restore 63 231 pd shockwave;
#X obj 171 254 hsl 64 12 0 1 0 1 empty empty vol 15 6 1 8 #fcfcfc #000000 #000000 0 1;
#X obj 62 270 *~;
#X obj 62 313 throw~ out;
#X obj 221 28 udpreceive 7001;
#X obj 220 73 unpackOSC;
#X obj 224 120 print;
#X obj 167 158 routeOSC /shockwave;
#X obj 167 205 nbx 5 14 -1e+37 1e+37 0 0 empty empty empty 0 -8 0 10 #fcfcfc #000000 #000000 0 256;
#X connect 0 0 1 0;
#X connect 1 0 3 0;
#X connect 2 0 3 1;
#X connect 3 0 4 0;
#X connect 5 0 6 0;
#X connect 6 0 7 0;
#X connect 6 0 8 0;
#X connect 8 0 9 0;
#X connect 9 0 2 0;
#X restore 983 181 pd udprcv;
#X obj 44 35 tgl 20 0 empty empty empty 17 7 0 10 #dcdcdc #000000 #000000 0 1;
#X obj 130 36 nbx 4 16 -1e+37 1e+37 0 0 empty empty empty 0 -8 0 10 #dcdcdc #000000 #000000 0 256;
#X obj 44 88 bng 20 250 50 0 click empty empty 17 7 0 10 #dcdcdc #000000 #000000;
#X text 42 14 on/off;
#X text 128 17 BPM (or another setting);
#X obj 44 63 else/tempo 120, f 25;
#N canvas 818 220 450 380 hp-filter 0;
#X floatatom 45 280 5 0 0 0 - - - 0;
#X text 56 304 low-pass filter;
#X text 100 278 <= cutoff (Hertz);
#X obj 19 199 inlet~;
#X obj 20 336 outlet~;
#X obj 110 125 ui.knob @size 40 40 @receive "(null)" @send "(null)" @pinned 0 @presetname "ui.knob.8" @mouse_events 0 @background_color 0.93 0.93 0.93 1 @border_color 0.6 0.6 0.6 1 @label_color 0 0 0 1 @scale_color 0.6 0.6 0.6 1 @knob_color 0 0.75 1 1 @fontname "Helvetica" @fontweight "normal" @fontslant "roman" @fontsize 11 @label "(null)" @label_inner 0 @label_side "top" @label_align "left" @label_valign "top" @label_margins 0 0 @min 0 @max 1000 @scale "linear" @midi_channel 0 @midi_control -1 @midi_pickup 1 @show_range 0 @show_value 0 @active_scale 0;
#X obj 20 305 hip~;
#X text 116 104 HPF;
#X connect 0 0 6 1;
#X connect 3 0 6 0;
#X connect 5 0 0 0;
#X connect 6 0 4 0;
#X coords 0 -1 1 1 60 70 2 100 100;
#X restore 897 518 pd hp-filter;
#N canvas 864 468 450 300 input 0;
#X obj 60 134 adc~;
#X obj 59 191 s~ input;
#X obj 59 163 *~;
#X obj 107 105 hsl 162 19 0 1 0 0 empty empty INPUT 7 10 0 10 #c6feff #000000 #000000 0 1;
#X connect 0 0 2 0;
#X connect 0 1 2 0;
#X connect 2 0 1 0;
#X connect 3 0 2 1;
#X coords 0 -1 1 1 180 30 2 100 100;
#X restore 261 58 pd input;
#X connect 0 0 2 0;
#X connect 0 0 2 1;
#X connect 3 0 10 0;
#X connect 4 0 5 0;
#X connect 4 0 19 0;
#X connect 5 0 24 0;
#X connect 6 0 25 0;
#X connect 7 0 6 0;
#X connect 8 0 4 0;
#X connect 9 0 7 0;
#X connect 13 0 41 0;
#X connect 14 0 23 0;
#X connect 15 0 14 0;
#X connect 20 0 22 0;
#X connect 21 0 11 0;
#X connect 23 0 31 0;
#X connect 26 0 27 0;
#X connect 28 0 3 0;
#X connect 29 0 21 0;
#X connect 30 0 20 0;
#X connect 32 0 27 0;
#X connect 35 0 40 0;
#X connect 36 0 40 1;
#X connect 40 0 37 0;
#X connect 41 0 0 0;
