#N canvas 23 75 1188 800 12;
#X obj 1185 260;
#X obj 959 674 ui.gain~ @size 120 28 @receive "(null)" @send "(null)" @pinned 0 @presetname "ui.gain~.0" @mouse_events 0 @background_color 0.93 0.93 0.93 1 @border_color 0.6 0.6 0.6 1 @label_color 0 0 0 1 @knob_color 0 0.75 1 1 @fontname "Helvetica" @fontweight "normal" @fontslant "roman" @fontsize 11 @label "(null)" @label_inner 0 @label_side "top" @label_align "left" @label_valign "top" @label_margins 0 0 @max 0 @min -60 @output_value 0 @relative 1 @midi_channel 0 @midi_control -1 @midi_pickup 1 @show_range 1;
#X obj 1094 665 ui.dsp~ @size 30 30 @receive "(null)" @send "(null)" @pinned 0 @background_color 0.93 0.93 0.93 1 @border_color 0.6 0.6 0.6 1 @label_color 0 0 0 1 @active_color 0 0.75 1 1 @fontname "Helvetica" @fontweight "normal" @fontslant "roman" @fontsize 11 @label "(null)" @label_inner 0 @label_side "top" @label_align "left" @label_valign "top" @label_margins 0 0;
#X obj 957 719 dac~;
#X obj 588 76 reverb;
#X obj 131 77 euclid-generator;
#X obj 36 10 tgl 19 0 empty empty empty 0 -10 0 12 #fcfcfc #000000 #000000 0 1;
#X obj 95 11 nbx 5 17 -1e+37 1e+37 0 0 empty empty empty 0 -10 0 12 #fcfcfc #000000 #000000 0 256;
#X obj 131 281 explosion-kick;
#X obj 352 282 explosion-snare;
#X obj 352 76 euclid-generator;
#X obj 35 43 metro 250;
#X obj 35 73 bng 19 250 50 0 click empty empty 0 -10 0 12 #fcfcfc #000000 #000000;
#X obj 131 51 bng 19 250 50 0 empty click empty 0 -10 0 12 #fcfcfc #000000 #000000;
#X obj 352 47 bng 19 250 50 0 empty click empty 0 -10 0 12 #fcfcfc #000000 #000000;
#X obj 577 231 echo;
#X obj 597 192 throw~ fx-out;
#X obj 587 318 throw~ fx-out;
#X obj 959 630 catch~ fx-out;
#X obj 352 417 throw~ drums;
#X obj 131 417 throw~ drums;
#X obj 575 37 catch~ drums;
#X connect 1 0 3 0;
#X connect 1 0 3 1;
#X connect 4 0 16 0;
#X connect 5 0 8 0;
#X connect 6 0 11 0;
#X connect 7 0 11 1;
#X connect 8 0 20 0;
#X connect 9 0 19 0;
#X connect 10 0 9 0;
#X connect 11 0 12 0;
#X connect 13 0 5 0;
#X connect 14 0 10 0;
#X connect 15 0 17 0;
#X connect 18 0 1 0;
#X connect 21 0 4 0;
#X connect 21 0 15 0;
