#N canvas 646 143 827 525 12;
#X obj 114 152 ui.knob @size 40 40 @receive "(null)" @send "(null)" @pinned 0 @presetname "ui.knob.3" @mouse_events 0 @background_color 0.93 0.93 0.93 1 @border_color 0.6 0.6 0.6 1 @label_color 0 0 0 1 @scale_color 0.6 0.6 0.6 1 @knob_color 0 0.75 1 1 @fontname "Helvetica" @fontweight "normal" @fontslant "roman" @fontsize 11 @label "(null)" @label_inner 0 @label_side "top" @label_align "left" @label_valign "top" @label_margins 0 0 @min 0 @max 1 @scale "linear" @midi_channel 0 @midi_control -1 @midi_pickup 1 @show_range 0 @show_value 0 @active_scale 0;
#X obj 183 153 ui.knob @size 40 40 @receive "(null)" @send "(null)" @pinned 0 @presetname "ui.knob.4" @mouse_events 0 @background_color 0.93 0.93 0.93 1 @border_color 0.6 0.6 0.6 1 @label_color 0 0 0 1 @scale_color 0.6 0.6 0.6 1 @knob_color 0 0.75 1 1 @fontname "Helvetica" @fontweight "normal" @fontslant "roman" @fontsize 11 @label "(null)" @label_inner 0 @label_side "top" @label_align "left" @label_valign "top" @label_margins 0 0 @min 0 @max 1 @scale "linear" @midi_channel 0 @midi_control -1 @midi_pickup 1 @show_range 0 @show_value 0 @active_scale 0;
#X obj 255 152 ui.knob @size 40 40 @receive "(null)" @send "(null)" @pinned 0 @presetname "ui.knob.5" @mouse_events 0 @background_color 0.93 0.93 0.93 1 @border_color 0.6 0.6 0.6 1 @label_color 0 0 0 1 @scale_color 0.6 0.6 0.6 1 @knob_color 0 0.75 1 1 @fontname "Helvetica" @fontweight "normal" @fontslant "roman" @fontsize 11 @label "(null)" @label_inner 0 @label_side "top" @label_align "left" @label_valign "top" @label_margins 0 0 @min 0 @max 1 @scale "linear" @midi_channel 0 @midi_control -1 @midi_pickup 1 @show_range 0 @show_value 0 @active_scale 0;
#X msg 105 213 @room \$1;
#X msg 183 213 @damp \$1;
#X msg 256 212 @drywet \$1;
#X obj 332 158 tgl 30 0 empty empty empty 17 7 0 10 #fcfcfc #000000 #000000 0 1;
#X msg 353 258 @freeze \$1;
#X obj 65 308 fx.freeverb2~ 0.95 0.125;
#X obj 66 363 outlet~;
#X obj 66 46 inlet~;
#X text 116 131 room;
#X text 184 130 damp;
#X text 250 130 dry/wet;
#X text 322 134 freeze;
#X connect 0 0 3 0;
#X connect 1 0 4 0;
#X connect 2 0 5 0;
#X connect 3 0 8 0;
#X connect 4 0 8 0;
#X connect 5 0 8 0;
#X connect 6 0 7 0;
#X connect 7 0 8 0;
#X connect 8 0 9 0;
#X connect 10 0 8 0;
#X coords 0 -1 1 1 300 100 1 100 100;
